<svg width="30" height="30" viewBox="0 0 30 30" fill="none" xmlns="http://www.w3.org/2000/svg">
<g clip-path="url(#clip0)">
<path d="M29.1002 18.2877L26.3428 16.1314C26.4283 15.3789 26.4283 14.619 26.3428 13.8664L29.1028 11.709C29.62 11.2924 29.7582 10.562 29.429 9.98521L26.5603 5.0265C26.2299 4.44607 25.5262 4.1926 24.9015 4.42902L21.6515 5.73654C21.0408 5.29345 20.3866 4.91359 19.699 4.60281L19.2003 1.1503C19.1103 0.487494 18.5417 -0.00516029 17.8728 0.000288905H12.1228C11.4595 -0.00369546 10.8954 0.483451 10.8028 1.14028L10.3029 4.60275C9.61737 4.91652 8.96422 5.29667 8.35286 5.73777L5.09406 4.42773C4.4759 4.18404 3.77284 4.43447 3.44782 5.01396L0.576561 9.98146C0.238535 10.5592 0.377695 11.2976 0.90281 11.7127L3.66028 13.869C3.57397 14.6215 3.57397 15.3814 3.66028 16.134L0.900291 18.2902C0.382207 18.7062 0.24334 19.437 0.572812 20.014L3.44032 24.974C3.77032 25.5548 4.47444 25.8084 5.09904 25.5714L8.34905 24.2639C8.9603 24.7072 9.6149 25.0875 10.3028 25.3989L10.8028 28.8489C10.8908 29.51 11.4559 30.0029 12.1228 30.0002H17.8727C18.5373 30.0055 19.1032 29.5182 19.1965 28.8602L19.6964 25.3977C20.3819 25.0838 21.035 24.7037 21.6464 24.2627L24.9089 25.574C25.5271 25.8171 26.2298 25.5668 26.5552 24.9877L29.4352 20.0002C29.7576 19.4243 29.6159 18.6997 29.1002 18.2877ZM14.9978 21.2502C11.546 21.2502 8.74778 18.452 8.74778 15.0002C8.74778 11.5484 11.546 8.75018 14.9978 8.75018C18.4496 8.75018 21.2478 11.5484 21.2478 15.0002C21.2436 18.4503 18.4478 21.2461 14.9978 21.2502Z" fill="#455A64"/>
</g>
<defs>
<clipPath id="clip0">
<rect width="30" height="30" fill="white"/>
</clipPath>
</defs>
</svg>
