<?xml version="1.0" encoding="UTF-8"?>
<svg width="20px" height="20px" viewBox="0 0 20 20" version="1.1" xmlns="http://www.w3.org/2000/svg" xmlns:xlink="http://www.w3.org/1999/xlink">
    <!-- Generator: Sketch 52.6 (67491) - http://www.bohemiancoding.com/sketch -->
    <title>account</title>
    <desc>Created with Sketch.</desc>
    <g id="Page-1" stroke="none" stroke-width="1" fill="none" fill-rule="evenodd">
        <g id="account" fill="#000000" fill-rule="nonzero">
            <path d="M20,10 C20,4.47311402 15.5274963,0 10,0 C4.47311402,0 0,4.47250367 0,10 C0,15.4779053 4.43511961,20 10,20 C15.5419922,20 20,15.5030823 20,10 Z M10,1.171875 C14.8678589,1.171875 18.828125,5.13214109 18.828125,10 C18.828125,11.7807007 18.2984924,13.4922791 17.3162842,14.9420166 C13.3721924,10.6994629 6.63497926,10.6918335 2.68371582,14.9420166 C1.70150758,13.4922791 1.171875,11.7807007 1.171875,10 C1.171875,5.13214109 5.13214109,1.171875 10,1.171875 Z M3.4146118,15.8789062 C6.92138672,11.9454956 13.0795288,11.9464111 16.5852356,15.8789062 C13.0667114,19.8153687 6.93466188,19.8165894 3.4146118,15.8789062 Z" id="Shape"></path>
            <path d="M10,10.5859375 C11.9384766,10.5859375 13.515625,9.00878906 13.515625,7.0703125 L13.515625,5.8984375 C13.515625,3.95996094 11.9384766,2.3828125 10,2.3828125 C8.06152344,2.3828125 6.484375,3.95996094 6.484375,5.8984375 L6.484375,7.0703125 C6.484375,9.00878906 8.06152344,10.5859375 10,10.5859375 Z M7.65625,5.8984375 C7.65625,4.60601805 8.70758055,3.5546875 10,3.5546875 C11.2924195,3.5546875 12.34375,4.60601805 12.34375,5.8984375 L12.34375,7.0703125 C12.34375,8.36273195 11.2924195,9.4140625 10,9.4140625 C8.70758055,9.4140625 7.65625,8.36273195 7.65625,7.0703125 L7.65625,5.8984375 Z" id="Shape"></path>
        </g>
    </g>
</svg>