<?xml version="1.0" encoding="UTF-8"?>
<svg width="10px" height="10px" viewBox="0 0 10 10" version="1.1" xmlns="http://www.w3.org/2000/svg" xmlns:xlink="http://www.w3.org/1999/xlink">
    <!-- Generator: Sketch 52.6 (67491) - http://www.bohemiancoding.com/sketch -->
    <title>add</title>
    <desc>Created with Sketch.</desc>
    <g id="Page-1" stroke="none" stroke-width="1" fill="none" fill-rule="evenodd">
        <g id="add" fill="#1BBA4B">
            <path d="M9.609375,4.609375 L5.390625,4.609375 L5.390625,0.390625 C5.390625,0.174882813 5.21574219,0 5,0 C4.78425781,0 4.609375,0.174882813 4.609375,0.390625 L4.609375,4.609375 L0.390625,4.609375 C0.174882813,4.609375 0,4.78425781 0,5 C0,5.21574219 0.174882813,5.390625 0.390625,5.390625 L4.609375,5.390625 L4.609375,9.609375 C4.609375,9.82511719 4.78425781,10 5,10 C5.21574219,10 5.390625,9.82511719 5.390625,9.609375 L5.390625,5.390625 L9.609375,5.390625 C9.82511719,5.390625 10,5.21574219 10,5 C10,4.78425781 9.82511719,4.609375 9.609375,4.609375 Z" id="Path"></path>
        </g>
    </g>
</svg>