<svg width="30" height="30" viewBox="0 0 30 30" fill="none" xmlns="http://www.w3.org/2000/svg">
<path d="M15.9002 10.3125H12.9492C12.7874 10.3125 12.6562 10.4437 12.6562 10.6055V13.7695C12.6562 13.9313 12.7874 14.0625 12.9492 14.0625H15.9375C16.9606 14.0625 17.7949 13.2389 17.8122 12.22C17.8302 11.171 16.9493 10.3125 15.9002 10.3125Z" fill="#FFB800"/>
<path d="M15.9002 15.9375H12.9492C12.7874 15.9375 12.6562 16.0687 12.6562 16.2305V19.3945C12.6562 19.5563 12.7874 19.6875 12.9492 19.6875H15.9375C16.9606 19.6875 17.7949 18.8639 17.8122 17.845C17.8302 16.796 16.9493 15.9375 15.9002 15.9375Z" fill="#FFB800"/>
<path d="M25.6066 4.39336C22.7735 1.56023 19.0066 0 15 0C10.9934 0 7.22648 1.56023 4.39336 4.39336C1.56023 7.22648 0 10.9934 0 15C0 19.0066 1.56029 22.7735 4.39336 25.6066C7.22643 28.4398 10.9934 30 15 30C19.0066 30 22.7735 28.4398 25.6066 25.6066C28.4398 22.7735 30 19.0066 30 15C30 10.9934 28.4397 7.22654 25.6066 4.39336V4.39336ZM19.6875 17.8125C19.6875 19.3175 18.7959 20.6176 17.5134 21.214C17.4101 21.2621 17.3438 21.3653 17.3438 21.4792V22.4735C17.3438 22.9784 16.9558 23.4127 16.4515 23.4364C15.9131 23.4618 15.4688 23.0328 15.4688 22.5V21.8555C15.4688 21.6937 15.3376 21.5625 15.1758 21.5625H13.8867C13.7249 21.5625 13.5938 21.6937 13.5938 21.8555V22.4735C13.5938 22.9784 13.2058 23.4127 12.7015 23.4364C12.1631 23.4618 11.7188 23.0328 11.7188 22.5V21.8555C11.7188 21.6937 11.5876 21.5625 11.4258 21.5625H9.87023C9.36545 21.5625 8.93109 21.1745 8.90731 20.6704C8.88193 20.132 9.3109 19.6875 9.84375 19.6875H10.4883C10.6501 19.6875 10.7812 19.5563 10.7812 19.3945V15V10.6055C10.7812 10.4437 10.6501 10.3125 10.4883 10.3125H9.87023C9.36545 10.3125 8.93109 9.92455 8.90731 9.42035C8.88193 8.88199 9.3109 8.4375 9.84375 8.4375H11.4258C11.5876 8.4375 11.7188 8.30631 11.7188 8.14453V7.52648C11.7188 7.02164 12.1067 6.58729 12.611 6.56355C13.1494 6.53824 13.5938 6.96721 13.5938 7.5V8.14453C13.5938 8.30631 13.7249 8.4375 13.8867 8.4375H15.1758C15.3376 8.4375 15.4688 8.30631 15.4688 8.14453V7.52648C15.4688 7.02164 15.8567 6.58729 16.361 6.56355C16.8994 6.53824 17.3438 6.96721 17.3438 7.5V8.52076C17.3438 8.63473 17.4101 8.73791 17.5134 8.78596C18.7959 9.38244 19.6875 10.6825 19.6875 12.1875C19.6875 13.2002 19.2834 14.12 18.6286 14.7953C18.5176 14.9097 18.5176 15.0902 18.6286 15.2047C19.2834 15.88 19.6875 16.7998 19.6875 17.8125Z" fill="#FFB800"/>
</svg>
