<svg width="30" height="30" viewBox="0 0 30 30" fill="none" xmlns="http://www.w3.org/2000/svg">
<path d="M7.01501 3L1 6.31986L7.01501 9.63972L13.03 6.31986L7.01501 3Z" fill="#F8B26A"/>
<path d="M7.01501 10.2087L1 13.5286L7.01501 16.8484L13.03 13.5286L7.01501 10.2087Z" fill="#F8B26A"/>
<path d="M1 6.31989V13.4726L7.01502 16.7925V9.63975L1 6.31989Z" fill="#E15B64"/>
<path d="M13.0299 6.31989V13.4726L7.01489 16.7925V9.63975L13.0299 6.31989Z" fill="#F47E60"/>
<path d="M21.481 19.0875C22.9065 18.0229 22.9131 16.4676 21.495 15.6204L19.059 14.1653C18.7882 14.0068 18.4991 13.8848 18.1988 13.8023C18.2431 13.9114 18.2758 14.0229 18.2979 14.1357C18.3418 14.3571 18.3449 14.5838 18.3049 14.8121L20.6787 16.23C21.6489 16.8095 21.6446 17.8737 20.669 18.602C19.6935 19.3304 18.1106 19.4521 17.1405 18.8725L14.7667 17.4547L14.7045 17.4174C14.6165 17.3642 14.5329 17.3036 14.4543 17.2361C14.3706 17.1658 14.2945 17.0861 14.2274 16.9985C14.1127 16.8505 14.0344 16.6755 13.9994 16.4887C13.9842 16.4027 13.9792 16.3159 13.9842 16.2279C13.9889 16.1415 14.0013 16.0552 14.0254 15.9684C14.1167 15.6423 14.3463 15.3199 14.7142 15.0449C15.0822 14.7704 15.5363 14.5822 16.0115 14.4853C16.1378 14.4597 16.2652 14.4419 16.393 14.4289C16.3491 14.2453 16.2577 14.0777 16.1288 13.9447C16.0515 13.8626 15.9651 13.7903 15.8716 13.7293C15.7244 13.7573 15.5783 13.7893 15.4345 13.8295C14.8739 13.9848 14.3451 14.2298 13.9022 14.5603C13.4593 14.8912 13.154 15.2692 12.985 15.6585C12.9434 15.7558 12.9099 15.8566 12.8847 15.9599C12.8587 16.0633 12.8435 16.1667 12.8365 16.2697C12.8138 16.5947 12.8879 16.9191 13.0487 17.1984C13.1072 17.3044 13.1754 17.4042 13.2522 17.4965C13.4166 17.692 13.6276 17.8716 13.8879 18.027L16.3239 19.4821C17.7419 20.3293 20.0552 20.1521 21.481 19.0875V19.0875Z" fill="#333333"/>
<path d="M12.5829 17.0971C12.5394 16.9896 12.5062 16.878 12.4839 16.7637C12.4395 16.5408 12.4372 16.3111 12.4769 16.0872L10.103 14.6694C9.1329 14.0899 9.13717 13.0257 10.1127 12.2973C11.0883 11.569 12.6711 11.4473 13.6412 12.0268L16.0151 13.4446L16.0772 13.482C16.1705 13.5379 16.2521 13.5992 16.3274 13.6632C16.4152 13.7379 16.491 13.8173 16.5543 13.9009C16.674 14.0595 16.7505 14.2314 16.7824 14.4107C16.7975 14.4967 16.8026 14.5834 16.7975 14.6714C16.7933 14.7593 16.7795 14.8464 16.7564 14.931C16.6651 15.2571 16.4355 15.5795 16.0675 15.8544C15.6996 16.129 15.2454 16.3172 14.7703 16.4141C14.644 16.4397 14.5166 16.4575 14.3887 16.4705C14.4276 16.6432 14.5158 16.8079 14.6529 16.9547C14.7252 17.0322 14.8107 17.1044 14.9101 17.1701C15.0574 17.1421 15.2035 17.11 15.3472 17.0699C15.9078 16.9146 16.4366 16.6696 16.8795 16.3391C17.3224 16.0086 17.6278 15.6302 17.7968 15.2408C17.8399 15.1411 17.8718 15.0405 17.8971 14.9395C17.9231 14.8361 17.9382 14.7327 17.9452 14.6297C17.968 14.3047 17.8939 13.9803 17.7331 13.701C17.6746 13.595 17.6064 13.4952 17.5295 13.4029C17.3473 13.1905 17.1325 13.0113 16.8939 12.8724L14.4579 11.4173C13.0402 10.5705 10.7266 10.7477 9.30112 11.8123C7.87566 12.8769 7.86905 14.4322 9.28714 15.2794L11.7231 16.7345C11.9938 16.8929 12.2828 17.0148 12.5829 17.0971V17.0971Z" fill="#333333"/>
<path d="M23.7142 13.0119L17.6992 16.3318L23.7142 19.6521L29.7292 16.3318L23.7142 13.0119Z" fill="#F8B26A"/>
<path d="M23.7142 20.1643L17.6992 23.4846L23.7142 26.8044L29.7292 23.4846L23.7142 20.1643Z" fill="#F8B26A"/>
<path d="M17.6992 16.3318V23.4846L23.7142 26.8044V19.6521L17.6992 16.3318Z" fill="#E15B64"/>
<path d="M29.7291 16.3318V23.4846L23.7141 26.8044V19.6521L29.7291 16.3318Z" fill="#F47E60"/>
</svg>
