<?xml version="1.0" encoding="UTF-8"?>
<svg width="19px" height="20px" viewBox="0 0 19 20" version="1.1" xmlns="http://www.w3.org/2000/svg" xmlns:xlink="http://www.w3.org/1999/xlink">
    <!-- Generator: Sketch 52.6 (67491) - http://www.bohemiancoding.com/sketch -->
    <title>blockchain</title>
    <desc>Created with Sketch.</desc>
    <g id="Page-1" stroke="none" stroke-width="1" fill="none" fill-rule="evenodd">
        <g id="blockchain" fill="#000000" fill-rule="nonzero">
            <path d="M18.99434,4.58962513 C18.9929632,4.58117118 18.9932691,4.57224756 18.9911275,4.56395016 C18.9851956,4.54112555 18.9764031,4.5191823 18.9649689,4.49866684 C18.9611446,4.49162188 18.9553315,4.48598591 18.9507423,4.47941061 C18.9425278,4.46619313 18.9332128,4.45372676 18.922901,4.44215059 C18.9166291,4.43557529 18.9086744,4.4310352 18.9017906,4.42508612 C18.8915737,4.41544869 18.8806274,4.40665415 18.8690541,4.39878493 L18.8670655,4.39800215 L18.8653828,4.39674972 L16.6287479,3.08529081 C16.5463011,3.03698275 16.4450196,3.03698275 16.3625729,3.08529081 L14.1247142,4.39659316 L14.1230315,4.3978456 L14.1210428,4.39862837 C14.1094128,4.40654297 14.0984151,4.41539001 14.0881534,4.42508612 C14.0812695,4.43087865 14.0728559,4.43557529 14.0671959,4.44199403 C14.0567562,4.45370637 14.0473379,4.46633107 14.0390487,4.47972372 C14.0346124,4.48629902 14.0289524,4.49177843 14.025128,4.49866684 C14.0137,4.51918538 14.0049078,4.54112779 13.9989694,4.56395016 C13.9968278,4.57193445 13.9971337,4.58054496 13.995757,4.58868581 C13.9925539,4.60367427 13.9906091,4.6189156 13.989944,4.63424323 L13.989944,5.19236081 L11.9995974,3.91675294 C12.0024946,3.90304054 12.004336,3.88911662 12.0051045,3.87510938 L12.0051045,1.58534002 C12.0043963,1.5702748 12.0024517,1.55529718 11.9992915,1.54056537 C11.9979147,1.53211141 11.9982207,1.5231878 11.996079,1.51489039 C11.9901347,1.49211977 11.9813425,1.47022989 11.9699205,1.44976363 C11.9645683,1.44162852 11.9587982,1.43378977 11.9526344,1.42628042 C11.9452624,1.41464093 11.9370286,1.4035975 11.9280055,1.39324738 C11.91994,1.38595748 11.9114606,1.3791616 11.9026118,1.37289526 C11.893558,1.36455151 11.8839484,1.3568618 11.8738527,1.34988172 L11.872323,1.34988172 L11.8712521,1.3475334 L9.63324048,0.0362310464 C9.5507937,-0.0120770155 9.44951225,-0.0120770155 9.36706547,0.0362310464 L7.12905382,1.3475334 L7.12721813,1.34894239 L7.12568838,1.34894239 C7.11553491,1.3559664 7.10587397,1.36370866 7.09677627,1.37211249 C7.08798308,1.37833208 7.07955495,1.38507557 7.07153554,1.39230805 C7.06238972,1.40279877 7.0540531,1.41399996 7.04660075,1.42581076 C7.04055554,1.43317618 7.03488788,1.44085769 7.02962062,1.4488243 C7.01818644,1.46933976 7.00939393,1.49128301 7.00346205,1.51410762 C7.00132041,1.52209191 7.00162636,1.53070242 7.00024959,1.53884327 C6.99704652,1.55383173 6.99510176,1.56907307 6.99443657,1.58440069 L6.99443657,3.87510938 C6.99519711,3.88916911 6.9970385,3.9031457 6.99994364,3.91690949 L5.01005604,5.19236081 L5.01005604,4.63439978 C5.00934779,4.61933456 5.00740327,4.60435694 5.00424302,4.58962513 C5.00286625,4.58117118 5.0031722,4.57224756 5.00103056,4.56395016 C4.99509868,4.54112555 4.98630617,4.5191823 4.97487199,4.49866684 C4.97104763,4.49162188 4.96523462,4.48598591 4.96064539,4.47941061 C4.95243089,4.46619313 4.94311582,4.45372676 4.9328041,4.44215059 C4.92653216,4.43557529 4.9185775,4.4310352 4.91169367,4.42508612 C4.9014768,4.41544869 4.89053045,4.40665415 4.8789572,4.39878493 L4.87696854,4.39800215 L4.87528582,4.39674972 L2.63834498,3.08529081 C2.55589821,3.03698275 2.45461676,3.03698275 2.37216998,3.08529081 L0.134770219,4.39659316 L0.133087504,4.3978456 L0.13109884,4.39862837 C0.119468807,4.40654297 0.10847111,4.41539001 0.0982093998,4.42508612 C0.0913255635,4.43087865 0.0829119859,4.43557529 0.0772519427,4.44199403 C0.0668122358,4.45370637 0.0573939069,4.46633107 0.0491047011,4.47972372 C0.0446684511,4.48629902 0.0390084079,4.49177843 0.0351840544,4.49866684 C0.0237560356,4.51918538 0.0149638616,4.54112779 0.00902547661,4.56395016 C0.00688383866,4.57193445 0.00718978694,4.58054496 0.00581301969,4.58868581 C0.00260994783,4.60367427 0.000665190161,4.6189156 2.39282523e-09,4.63424323 L2.39282523e-09,6.92401259 C-1.30570712e-05,7.02421922 0.0534312958,7.11643873 0.139359443,7.16448064 L2.23739976,8.33691896 L2.23739976,11.4739625 L0.134770219,12.7063612 L0.133087504,12.7076137 L0.13109884,12.7083965 C0.119468807,12.7163111 0.10847111,12.7251581 0.0982093998,12.7348542 C0.0913255635,12.7406467 0.0829119859,12.7453434 0.0772519427,12.7517621 C0.0668122358,12.7634745 0.0573939069,12.7760992 0.0491047011,12.7894918 C0.0446684511,12.7960671 0.0390084079,12.8015465 0.0351840544,12.8084349 C0.0237560356,12.8289535 0.0149638616,12.8508959 0.00902547661,12.8737182 C0.00688383866,12.8817025 0.00718978694,12.890313 0.00581301969,12.8984539 C0.00260994783,12.9134424 0.000665190161,12.9286837 2.39282496e-09,12.9440113 L2.39282496e-09,15.2337807 C4.80193974e-05,15.3340539 0.053619024,15.4262895 0.139665392,15.4742487 L2.37691218,16.7240251 C2.38948869,16.7302941 2.40253265,16.7355291 2.41592058,16.7396805 C2.42311037,16.742342 2.42984123,16.7462558 2.43718399,16.7481345 C2.48170498,16.76054 2.52865701,16.76054 2.573178,16.7481345 C2.58052076,16.7460993 2.58725162,16.7421854 2.5944414,16.7396805 C2.60782934,16.7355291 2.6208733,16.7302941 2.63344981,16.7240251 L4.53308267,15.6627406 L6.99596631,17.3408507 L6.99596631,18.4763421 C6.99595325,18.5765487 7.04939761,18.6687682 7.13532575,18.7168101 L9.37257254,19.9665865 C9.38514905,19.9728555 9.39819301,19.9780905 9.41158095,19.9822419 C9.41877073,19.9849034 9.42550159,19.9888172 9.43284435,19.9906959 C9.47736534,20.0031014 9.52431737,20.0031014 9.56883836,19.9906959 C9.57618112,19.9886607 9.58291198,19.9847468 9.59010177,19.9822419 C9.6034897,19.9780905 9.61653366,19.9728555 9.62911017,19.9665865 L11.8657451,18.716497 C11.9516732,18.6684551 12.0051176,18.5762356 12.0051045,18.476029 L12.0051045,17.3405376 L14.4679881,15.6624275 L16.367621,16.723712 C16.3801975,16.729981 16.3932415,16.735216 16.4066294,16.7393674 C16.4138192,16.7420289 16.4205501,16.7459427 16.4278928,16.7478214 C16.4724138,16.7602269 16.5193658,16.7602269 16.5638868,16.7478214 C16.5712296,16.7457862 16.5779605,16.7418723 16.5851502,16.7393674 C16.5985382,16.735216 16.6115821,16.729981 16.6241586,16.723712 L18.8606406,15.4742487 C18.9465687,15.4262068 19.0000131,15.3339873 19,15.2337807 L19,12.9441679 C18.9992917,12.9291026 18.9973472,12.914125 18.994187,12.8993932 C18.9928102,12.8909393 18.9931162,12.8820156 18.9909745,12.8737182 C18.9850426,12.8508936 18.9762501,12.8289504 18.9648159,12.8084349 C18.9609916,12.80139 18.9551786,12.795754 18.9505894,12.7891787 C18.9423749,12.7759612 18.9330598,12.7634948 18.9227481,12.7519187 C18.9164761,12.7453434 18.9085215,12.7408033 18.9016376,12.7348542 C18.8914208,12.7252168 18.8804744,12.7164222 18.8689012,12.708553 L18.8669125,12.7077702 L18.8652298,12.7065178 L16.7626002,11.474119 L16.7626002,8.33691896 L18.8604876,7.16495031 C18.9464157,7.11690839 18.9998601,7.02468888 18.999847,6.92448226 L18.999847,4.63439978 C18.9992395,4.61934343 18.9973973,4.6043659 18.99434,4.58962513 Z M11.1204551,16.2192927 L9.50015297,17.1244921 L7.87985089,16.2192927 L7.81131848,16.1809367 L9.50015297,15.1911978 L11.1889875,16.1803105 L11.1204551,16.2192927 Z M4.47464655,6.76150879 L2.77280925,7.71210906 L2.77280925,6.04683649 L4.47464655,5.09623621 L4.47464655,6.76150879 Z M2.50510451,11.9484798 L4.193939,12.9382188 L4.12540659,12.9765747 L2.50510451,13.8817741 L0.884802424,12.9765747 L0.81627001,12.9382188 L2.50510451,11.9484798 Z M4.7198641,12.6150898 L2.77280925,11.4738059 L2.77280925,8.33691896 L4.54639142,7.34608412 L6.99520144,8.97675811 L6.99520144,10.9756488 L4.7198641,12.6150898 Z M7.53061093,3.71244903 L7.53061093,2.04717645 L9.23244823,2.99840294 L9.23244823,4.66320585 L7.53061093,3.71244903 Z M11.469695,3.71244903 L9.76785772,4.66320585 L9.76785772,2.99840294 L11.469695,2.04748956 L11.469695,3.71244903 Z M9.50015297,7.83249964 L11.1889875,8.8222386 L11.1204551,8.8605945 L9.50015297,9.7657939 L7.87985089,8.8605945 L7.81131848,8.8222386 L9.50015297,7.83249964 Z M7.53061093,9.28986755 L9.23244823,10.2406244 L9.23244823,11.9063666 L7.53061093,10.9552967 L7.53061093,9.28986755 Z M9.76785772,10.2406244 L11.469695,9.28986755 L11.469695,10.9552967 L9.76785772,11.9063666 L9.76785772,10.2406244 Z M12.0051045,8.97675811 L14.4539145,7.34561446 L16.2274967,8.33691896 L16.2274967,11.4739625 L14.2804419,12.6152464 L12.0051045,10.9756488 L12.0051045,8.97675811 Z M16.2271907,6.04683649 L16.2271907,7.71210906 L14.5256594,6.76150879 L14.5256594,5.09623621 L16.2271907,6.04683649 Z M14.5256594,15.0712769 L14.5256594,13.4058477 L16.2274967,14.3566046 L16.2274967,16.0218771 L14.5256594,15.0712769 Z M18.1155035,12.9765747 L16.4952014,13.8817741 L14.8747464,12.9765747 L14.806214,12.9382188 L16.4950485,11.9484798 L18.183883,12.9382188 L18.1155035,12.9765747 Z M16.4952014,3.63871175 L18.1840359,4.6284507 L18.1155035,4.66680661 L16.4952014,5.57200601 L14.8747464,4.66680661 L14.806214,4.6284507 L16.4952014,3.63871175 Z M13.9995813,6.99430566 L11.7285273,8.50709394 L9.76785772,7.35798228 L9.76785772,5.28754608 L11.5637741,4.28403032 L13.9900969,5.83893181 L13.9900969,6.92385604 C13.9902473,6.94766173 13.9934357,6.97134532 13.9995813,6.99430566 Z M9.50015297,0.589808543 L11.1888345,1.57970405 L9.57419246,2.48177236 L9.50015297,2.5231028 L9.42611349,2.48177236 L7.81147145,1.5795475 L9.50015297,0.589808543 Z M7.43653184,4.28449998 L9.23244823,5.28801575 L9.23244823,7.35798228 L7.27177869,8.50709394 L5.00072462,6.99430566 C5.00681857,6.97133832 5.00995557,6.94765485 5.01005604,6.92385604 L5.01005604,5.83893181 L7.43653184,4.28449998 Z M2.50510451,3.63871175 L4.193939,4.6284507 L4.12540659,4.66680661 L2.50510451,5.57200601 L0.884802424,4.66680661 L0.81627001,4.6284507 L2.50510451,3.63871175 Z M0.535868412,5.09623621 L2.23770571,6.04699304 L2.23770571,7.71210906 L0.535868412,6.76150879 L0.535868412,5.09623621 Z M0.535868412,13.4060043 L2.23770571,14.3567611 L2.23770571,16.0220337 L0.535868412,15.0712769 L0.535868412,13.4060043 Z M2.7731152,14.3567611 L4.4749525,13.4060043 L4.4749525,15.0712769 L2.7731152,16.0218771 L2.7731152,14.3567611 Z M4.99521755,15.3192596 C5.0047875,15.2917432 5.00995312,15.2628259 5.01051496,15.2336241 L5.01051496,13.0763001 L7.28080416,11.4399901 L9.23244823,12.5302372 L9.23244823,14.7166804 L7.12905382,15.9490792 L7.1273711,15.9503316 L7.12538244,15.9511144 C7.1137524,15.959029 7.10275471,15.9678761 7.092493,15.9775722 C7.08560916,15.9833647 7.07719558,15.9880613 7.07153554,15.9944801 C7.06109583,16.0061924 7.0516775,16.0188171 7.0433883,16.0322098 C7.03895205,16.0387851 7.033292,16.0442645 7.02946765,16.0511529 C7.01803963,16.0716714 7.00924746,16.0936138 7.00330907,16.1164362 C7.00116743,16.1244205 7.00147338,16.133031 7.00009662,16.1411718 C6.99689354,16.1561603 6.99494879,16.1714016 6.9942836,16.1867293 L6.9942836,16.6823815 L4.99521755,15.3192596 Z M7.53061093,17.1927499 L7.53061093,16.6484091 L9.23244823,17.599166 L9.23244823,19.2644385 L7.53061093,18.3138383 L7.53061093,17.1927499 Z M9.76785772,19.2644385 L9.76785772,17.5993225 L11.469695,16.6485657 L11.469695,18.3139948 L9.76785772,19.2644385 Z M12.0051045,16.1867293 C12.0043963,16.171664 12.0024517,16.1566864 11.9992915,16.1419546 C11.9979147,16.1335007 11.9982207,16.124577 11.996079,16.1162796 C11.9901471,16.093455 11.9813546,16.0715118 11.9699205,16.0509963 C11.9660961,16.0439514 11.9602831,16.0383154 11.9556939,16.0317401 C11.9474794,16.0185226 11.9381643,16.0060562 11.9278526,15.9944801 C11.9215806,15.9879048 11.913626,15.9833647 11.9067421,15.9774156 C11.8965253,15.9677782 11.8855789,15.9589836 11.8740057,15.9511144 L11.872017,15.9503316 L11.8703343,15.9490792 L9.76785772,14.7166804 L9.76785772,12.5302372 L11.7195018,11.4399901 L13.9902499,13.0763001 L13.9902499,15.2337807 C13.9908118,15.2629824 13.9959774,15.2918997 14.0055473,15.3194161 L12.0055634,16.6825381 L12.0051045,16.1867293 Z M16.7626002,16.0217206 L16.7626002,14.3566046 L18.4644375,13.4058477 L18.4644375,15.0712769 L16.7626002,16.0217206 Z M16.7626002,7.71195251 L16.7626002,6.04683649 L18.4644375,5.09623621 L18.4644375,6.76150879 L16.7626002,7.71195251 Z" id="Shape"></path>
        </g>
    </g>
</svg>