<svg width="70" height="70" viewBox="0 0 70 70" fill="none" xmlns="http://www.w3.org/2000/svg">
<path d="M32.6897 6.91506L35.0147 6.72656L36.4662 24.6236L34.1413 24.8121L32.6897 6.91506Z" fill="#DBDBDB"/>
<path d="M10.1997 16.3917L11.6324 14.551L27.7958 27.1329L26.363 28.9736L10.1997 16.3917Z" fill="#DBDBDB"/>
<path d="M9.94499 11.1681L30.8378 3.77447L31.6156 5.97228L10.7227 13.3659L9.94499 11.1681Z" fill="#DBDBDB"/>
<path d="M35.2991 6.61255L36.2927 4.50104L62.7279 16.9413L61.7343 19.0528L35.2991 6.61255Z" fill="#DBDBDB"/>
<path d="M11.4913 15.2656L11.7023 12.9427L60.0569 17.3349L59.8459 19.6578L11.4913 15.2656Z" fill="#DBDBDB"/>
<path d="M63.1113 21.4145L65.4331 21.1904L66.7934 35.282L64.4716 35.5061L63.1113 21.4145Z" fill="#DBDBDB"/>
<path d="M45.3486 36.0248L45.5367 33.6987L64.1722 35.2056L63.9841 37.5318L45.3486 36.0248Z" fill="#DBDBDB"/>
<path d="M59.555 57.3386L64.703 38.8718L66.9498 39.498L61.8018 57.9649L59.555 57.3386Z" fill="#DBDBDB"/>
<path d="M37.6775 63.7319L58.4319 58.1814L59.0345 60.4348L38.2802 65.9853L37.6775 63.7319Z" fill="#DBDBDB"/>
<path d="M15.8625 60.1853L62.6797 36.8789L63.7197 38.9681L16.9025 62.2745L15.8625 60.1853Z" fill="#DBDBDB"/>
<path d="M4.78895 45.9572L6.93618 45.0463L13.7393 61.082L11.592 61.993L4.78895 45.9572Z" fill="#DBDBDB"/>
<path d="M3.7281 41.4629L7.03766 16.1949L9.35035 16.4978L6.0408 41.7657L3.7281 41.4629Z" fill="#DBDBDB"/>
<path d="M6.97497 40.4061L25.7981 33.9956L26.5498 36.2025L7.72662 42.613L6.97497 40.4061Z" fill="#DBDBDB"/>
<path d="M14.9073 65.2283L15.0786 62.902L33.5441 64.262L33.3728 66.5883L14.9073 65.2283Z" fill="#DBDBDB"/>
<path d="M35.3934 63.1597L60.9078 22.1766L62.887 23.4088L37.3725 64.3919L35.3934 63.1597Z" fill="#DBDBDB"/>
<path d="M6.33789 45.2696L7.72982 43.3979L34.6509 63.4191L33.259 65.2908L6.33789 45.2696Z" fill="#DBDBDB"/>
<path d="M4.25715 41.0995L31.1739 5.81718L33.0284 7.232L6.1115 42.5143L4.25715 41.0995Z" fill="#DBDBDB"/>
<path d="M41.5183 42.993L43.1136 41.2913L59.1409 56.3163L57.5456 58.018L41.5183 42.993Z" fill="#DBDBDB"/>
<path d="M12.9866 60.3558L27.9576 39.9495L29.8392 41.3299L14.8682 61.7363L12.9866 60.3558Z" fill="#DBDBDB"/>
<path d="M43.2955 28.2904L59.5109 19.7534L60.5976 21.8174L44.3822 30.3544L43.2955 28.2904Z" fill="#DBDBDB"/>
<path d="M35.0186 45.5021C40.8156 45.5021 45.5149 40.8027 45.5149 35.0058C45.5149 29.2088 40.8156 24.5094 35.0186 24.5094C29.2216 24.5094 24.5222 29.2088 24.5222 35.0058C24.5222 40.8027 29.2216 45.5021 35.0186 45.5021Z" fill="#FDB62F"/>
<path d="M27.5965 42.4278C31.6956 46.527 38.3416 46.527 42.4407 42.4278C46.5398 38.3287 46.5398 31.6828 42.4407 27.5837L27.5965 42.4278Z" fill="#FFA12E"/>
<path d="M33.8523 8.18177C35.7847 8.18177 37.3511 6.61531 37.3511 4.68299C37.3511 2.75066 35.7847 1.1842 33.8523 1.1842C31.92 1.1842 30.3535 2.75066 30.3535 4.68299C30.3535 6.61531 31.92 8.18177 33.8523 8.18177Z" fill="#4398D1"/>
<path d="M4.69581 46.6684C6.62813 46.6684 8.19459 45.1019 8.19459 43.1696C8.19459 41.2373 6.62813 39.6708 4.69581 39.6708C2.76348 39.6708 1.19702 41.2373 1.19702 43.1696C1.19702 45.1019 2.76348 46.6684 4.69581 46.6684Z" fill="#4398D1"/>
<path d="M35.0186 68.8273C36.9509 68.8273 38.5174 67.2609 38.5174 65.3286C38.5174 63.3962 36.9509 61.8298 35.0186 61.8298C33.0863 61.8298 31.5198 63.3962 31.5198 65.3286C31.5198 67.2609 33.0863 68.8273 35.0186 68.8273Z" fill="#87CED9"/>
<path d="M63.0088 23.3432C64.9412 23.3432 66.5076 21.7767 66.5076 19.8444C66.5076 17.9121 64.9412 16.3456 63.0088 16.3456C61.0765 16.3456 59.5101 17.9121 59.5101 19.8444C59.5101 21.7767 61.0765 23.3432 63.0088 23.3432Z" fill="#87CED9"/>
<path d="M9.36085 17.5119C11.2932 17.5119 12.8596 15.9454 12.8596 14.0131C12.8596 12.0808 11.2932 10.5143 9.36085 10.5143C7.42852 10.5143 5.86206 12.0808 5.86206 14.0131C5.86206 15.9454 7.42852 17.5119 9.36085 17.5119Z" fill="#87CED9"/>
<path d="M60.6763 62.996C62.6087 62.996 64.1751 61.4296 64.1751 59.4972C64.1751 57.5649 62.6087 55.9985 60.6763 55.9985C58.744 55.9985 57.1775 57.5649 57.1775 59.4972C57.1775 61.4296 58.744 62.996 60.6763 62.996Z" fill="#4398D1"/>
<path d="M65.3414 40.8371C67.2737 40.8371 68.8401 39.2706 68.8401 37.3383C68.8401 35.406 67.2737 33.8395 65.3414 33.8395C63.409 33.8395 61.8426 35.406 61.8426 37.3383C61.8426 39.2706 63.409 40.8371 65.3414 40.8371Z" fill="#87CED9"/>
<path d="M14.0259 66.4948C15.9582 66.4948 17.5247 64.9283 17.5247 62.996C17.5247 61.0637 15.9582 59.4972 14.0259 59.4972C12.0936 59.4972 10.5271 61.0637 10.5271 62.996C10.5271 64.9283 12.0936 66.4948 14.0259 66.4948Z" fill="#4398D1"/>
<path d="M66.419 32.81L65.5933 23.7225C67.7355 22.2912 68.312 19.3942 66.8807 17.252C66.0165 15.9584 64.5645 15.1808 63.0088 15.1785C62.2019 15.1835 61.4105 15.4002 60.7136 15.8071L38.4252 5.59299C38.9388 3.07489 37.3136 0.617143 34.7955 0.103551C32.2774 -0.410042 29.8197 1.21514 29.3061 3.73325C29.2711 3.90483 29.2457 4.07846 29.2303 4.25296L12.1379 10.286C11.3387 9.67987 10.364 9.35025 9.361 9.34719C6.78458 9.3539 4.7015 11.4481 4.7082 14.0245C4.71228 15.588 5.49936 17.0455 6.80456 17.9064L3.98687 38.576C1.4434 38.9446 -0.319693 41.3051 0.0487 43.8485C0.417093 46.392 2.77775 48.1551 5.32122 47.7867C5.40009 47.7753 5.47852 47.7619 5.55666 47.7465L10.6952 59.7391C8.88939 61.5696 8.90951 64.5175 10.74 66.3231C12.5704 68.1289 15.5183 68.1088 17.3239 66.2784C17.5728 66.0262 17.7919 65.7464 17.9772 65.4445L30.4713 66.3367C31.0224 68.8449 33.5024 70.4316 36.0106 69.8805C38.0421 69.4343 39.5301 67.6932 39.6545 65.6171L56.3518 61.2238C57.3023 63.6186 60.0142 64.7892 62.4088 63.8388C64.8036 62.8883 65.9742 60.1765 65.0238 57.7819C64.5559 56.6028 63.6278 55.6651 62.4537 55.1849L66.2475 41.9082C68.7699 41.4089 70.4098 38.9593 69.9105 36.437C69.5565 34.6492 68.1921 33.2324 66.419 32.8113V32.81ZM64.0865 32.8672C62.9406 33.1915 61.9626 33.9428 61.3539 34.9664L55.9809 34.5361L62.2589 24.4374C62.5066 24.481 62.7574 24.5048 63.0088 24.5086C63.115 24.5086 63.2141 24.4841 63.3191 24.4771L64.0865 32.8672ZM58.2866 55.5113L48.5985 46.4343L61.502 39.9825C62.0793 40.8116 62.9101 41.4307 63.8695 41.7471L60.1142 54.8932C59.4684 54.968 58.8456 55.1786 58.2866 55.5113ZM56.0708 58.8935L39.2171 63.3241C39.0607 63.0025 38.8678 62.7 38.6422 62.4226L47.3355 48.4391L56.6562 57.1779C56.3504 57.7039 56.1522 58.2855 56.0731 58.8888L56.0708 58.8935ZM32.2907 61.563L26.6623 57.3971L44.5819 48.4356L36.768 61.0125C35.2824 60.3992 33.5844 60.6071 32.2907 61.5607V61.563ZM17.141 59.5536C16.9813 59.4017 16.8111 59.2613 16.6313 59.1337L19.6473 55.1113L22.213 57.0111L17.141 59.5536ZM21.0433 53.2499L27.8426 44.1857C32.1735 47.5952 38.3051 47.4879 42.5141 43.9292L44.5574 45.8453L24.5561 55.846L21.0433 53.2499ZM32.9391 9.25972L33.3695 14.8578L27.6548 14.326L31.8359 8.87252C32.1875 9.04746 32.5603 9.17604 32.945 9.25505L32.9391 9.25972ZM24.9083 14.074L13.9174 13.0524C13.8575 12.7693 13.7712 12.4924 13.6597 12.2255L29.6071 6.59365C29.7297 6.86597 29.8784 7.12575 30.0515 7.36921L24.9083 14.074ZM13.7926 15.3791L23.2324 16.2573L19.7172 20.8489L13.5361 16.045C13.6385 15.8299 13.7243 15.6072 13.7926 15.3791ZM25.9754 16.5127L33.5561 17.2125L34.0308 23.3878C31.4067 23.61 28.9361 24.7179 27.025 26.5297L21.5564 22.2752L25.9754 16.5127ZM60.7195 37.7608L50.9229 42.6591L54.5884 36.7625L60.6833 37.25C60.6833 37.2803 60.674 37.3083 60.674 37.3386C60.6765 37.4821 60.7068 37.6197 60.7195 37.7608ZM46.9389 44.6511L46.785 44.7292L44.1411 42.2509C45.5455 40.4929 46.4083 38.3643 46.624 36.1245L51.9737 36.5514L46.9389 44.6511ZM25.6885 35.0049C25.6885 29.8521 29.8658 25.6748 35.0186 25.6748C40.1714 25.6748 44.3487 29.8521 44.3487 35.0049C44.3487 40.1578 40.1714 44.335 35.0186 44.335C29.8682 44.3292 25.6943 40.1553 25.6885 35.0049ZM46.6159 33.7827C46.4678 32.3932 46.0686 31.0421 45.438 29.7952L59.2185 22.5423C59.4704 22.8902 59.7695 23.2015 60.1072 23.4671L53.3604 34.3227L46.6159 33.7827ZM58.3951 20.3404L44.1854 27.8196C42.271 25.3716 39.4578 23.7903 36.3714 23.4275L35.9049 17.4364L58.3683 19.5263C58.3601 19.6324 58.3356 19.7351 58.3356 19.8435C58.3461 20.01 58.3657 20.1759 58.3939 20.3404H58.3951ZM25.4949 28.2966C24.1154 30.239 23.3684 32.5596 23.356 34.942L8.11762 40.0199C8.0873 39.9872 8.06397 39.9499 8.03365 39.9184L20.1394 24.1284L25.4949 28.2966ZM9.22907 42.1098L23.5892 37.3281C23.9836 39.2619 24.8642 41.0634 26.148 42.5623L19.1703 51.8656L9.15676 44.4586C9.28592 44.0405 9.35473 43.6062 9.36085 43.1688C9.35764 42.8119 9.31347 42.4565 9.22907 42.1098ZM65.3414 19.8435C65.3414 21.1318 64.2971 22.1761 63.0088 22.1761C61.7206 22.1761 60.6763 21.1318 60.6763 19.8435C60.6763 18.5553 61.7206 17.511 63.0088 17.511C64.2971 17.511 65.3414 18.5553 65.3414 19.8435ZM58.0489 17.1518L35.7325 15.0759L35.266 9.10227C36.0914 8.83768 36.826 8.34668 37.3862 7.68527L58.0489 17.1518ZM33.8525 2.34962C35.1407 2.34962 36.185 3.39386 36.185 4.68215C36.185 5.97043 35.1407 7.01467 33.8525 7.01467C32.5642 7.01467 31.5199 5.97043 31.5199 4.68215C31.5199 3.39386 32.5642 2.34962 33.8525 2.34962ZM9.361 11.6797C10.6493 11.6797 11.6935 12.724 11.6935 14.0122C11.6935 15.3005 10.6493 16.3448 9.361 16.3448C8.07272 16.3448 7.02848 15.3005 7.02848 14.0122C7.02848 12.724 8.07272 11.6797 9.361 11.6797ZM9.361 18.6773C10.3182 18.6765 11.2517 18.3792 12.0329 17.8259L18.2981 22.6985L6.38587 38.2366L9.05777 18.6435C9.1604 18.6528 9.25705 18.6773 9.361 18.6773ZM2.36344 43.1688C2.36344 41.8805 3.40768 40.8362 4.69596 40.8362C5.98424 40.8362 7.02848 41.8805 7.02848 43.1688C7.02848 44.457 5.98424 45.5013 4.69596 45.5013C3.40768 45.5013 2.36344 44.4569 2.36344 43.1688ZM7.973 46.4821L17.7696 53.7246L14.2953 58.357C14.2032 58.357 14.1169 58.3301 14.0236 58.3301C13.5799 58.3364 13.1395 58.4071 12.7162 58.5401L7.66161 46.7398C7.76541 46.6535 7.87737 46.5777 7.973 46.4821ZM14.026 65.3277C12.7378 65.3277 11.6935 64.2835 11.6935 62.9952C11.6935 61.7069 12.7378 60.6627 14.026 60.6627C15.3143 60.6627 16.3586 61.7069 16.3586 62.9952C16.3586 64.2835 15.3142 65.3277 14.026 65.3277ZM18.4275 61.5152L24.323 58.5634L30.805 63.3544C30.7113 63.5649 30.6333 63.782 30.5718 64.004L18.6759 63.155C18.6759 63.099 18.6922 63.0477 18.6922 62.9917C18.6855 62.4883 18.5962 61.9894 18.4275 61.5152ZM35.0186 67.6602C33.7303 67.6602 32.6861 66.616 32.6861 65.3277C32.6861 64.0394 33.7303 62.9952 35.0186 62.9952C36.3069 62.9952 37.3511 64.0394 37.3511 65.3277C37.3511 66.616 36.3069 67.6602 35.0186 67.6602ZM60.6763 61.8289C59.388 61.8289 58.3438 60.7847 58.3438 59.4964C58.3438 58.2081 59.388 57.1639 60.6763 57.1639C61.9646 57.1639 63.0088 58.2081 63.0088 59.4964C63.0088 60.7847 61.9646 61.8289 60.6763 61.8289ZM65.3414 39.67C64.0531 39.67 63.0088 38.6257 63.0088 37.3374C63.0088 36.0492 64.0531 35.0049 65.3414 35.0049C66.6296 35.0049 67.6739 36.0492 67.6739 37.3374C67.6739 38.6256 66.6296 39.67 65.3414 39.67Z" fill="#2D6DE2"/>
</svg>
