<?xml version="1.0" encoding="UTF-8"?>
<svg width="20px" height="24px" viewBox="0 0 20 24" version="1.1" xmlns="http://www.w3.org/2000/svg" xmlns:xlink="http://www.w3.org/1999/xlink">
    <!-- Generator: Sketch 52.6 (67491) - http://www.bohemiancoding.com/sketch -->
    <title>claim</title>
    <desc>Created with Sketch.</desc>
    <g id="Page-1" stroke="none" stroke-width="1" fill="none" fill-rule="evenodd">
        <g id="claim" fill="#000000">
            <path d="M12.3175639,7 L3.68243614,7 C3.30553929,7 3,7.22385925 3,7.5 C3,7.77614075 3.30553929,8 3.68243614,8 L12.3175639,8 C12.6944607,8 13,7.77614075 13,7.5 C13,7.22385925 12.6944153,7 12.3175639,7 Z" id="Path"></path>
            <path d="M12.3175639,10 L3.68243614,10 C3.30553929,10 3,10.2238593 3,10.5 C3,10.7761407 3.30553929,11 3.68243614,11 L12.3175639,11 C12.6944607,11 13,10.7761407 13,10.5 C12.9999546,10.2238593 12.6944153,10 12.3175639,10 Z" id="Path"></path>
            <path d="M12.3175639,13 L3.68243614,13 C3.30553929,13 3,13.2238593 3,13.5 C3,13.7761407 3.30553929,14 3.68243614,14 L12.3175639,14 C12.6944607,14 13,13.7761407 13,13.5 C12.9999546,13.2238925 12.6944153,13 12.3175639,13 Z" id="Path"></path>
            <path d="M7.29456259,16 L3.70543741,16 C3.31583738,16 3,16.2238593 3,16.5 C3,16.7761407 3.31583738,17 3.70543741,17 L7.29456259,17 C7.68416262,17 8,16.7761407 8,16.5 C8,16.2238593 7.68411569,16 7.29456259,16 Z" id="Path"></path>
            <path d="M16.099486,14.9076094 L16.099486,1.98675 C16.099486,0.891234375 15.200898,0 14.0963904,0 L4.70642169,0 C4.51449164,0 4.3336681,0.073828125 4.19500207,0.210046875 L0.211921782,4.15907813 C0.0752407396,4.29459375 0,4.47478125 0,4.66640625 L0,18.7834688 C0,19.8789844 0.898588055,20.7702188 2.00314291,20.7702188 L10.9810835,20.7702188 C11.5611272,22.6383281 13.3176109,24 15.3889053,24 C17.9314468,24 20,21.9484219 20,19.4266406 C20.0000945,17.1444844 18.3059491,15.2475 16.099486,14.9076094 Z M3.99593549,2.40032812 L3.99593549,3.96173437 L3.99588823,3.96173437 L2.42107875,3.96173437 L3.99593549,2.40032812 Z M10.7787558,19.3608281 L2.00319017,19.3608281 C1.68223548,19.3608281 1.4211142,19.1018906 1.4211142,18.7835156 L1.4211142,5.37117187 L4.70642169,5.37117187 C5.09883618,5.37117187 5.41695516,5.05565625 5.41695516,4.66645312 C5.41695516,4.66092187 5.41624623,4.65553125 5.41610445,4.65004687 C5.41624623,4.6445625 5.41695516,4.63917187 5.41695516,4.63364062 L5.41695516,1.4094375 L14.0963904,1.4094375 C14.4172978,1.4094375 14.6784664,1.668375 14.6784664,1.98675 L14.6784664,14.9076094 C12.4933184,15.2442187 10.8110356,17.1081562 10.7787558,19.3608281 Z M15.3889526,22.5905625 C13.629964,22.5905625 12.1989721,21.1712344 12.1989721,19.4266406 C12.1989721,17.6820469 13.629964,16.2627656 15.3889526,16.2627656 C17.1479412,16.2627656 18.5789803,17.6820469 18.5789803,19.4266406 C18.5790276,21.1712344 17.1479412,22.5905625 15.3889526,22.5905625 Z" id="Shape" fill-rule="nonzero"></path>
            <path d="M15.5,17 C15.2238593,17 15,17.2963458 15,17.661902 L15,19.338098 C15,19.7036542 15.2238593,20 15.5,20 C15.7761407,20 16,19.7036542 16,19.338098 L16,17.661902 C16,17.2963458 15.7761407,17 15.5,17 Z" id="Path"></path>
            <path d="M15.9973716,21.4507665 C15.9957086,21.434771 15.9934137,21.418443 15.9900211,21.4024475 C15.9870277,21.3864521 15.9830365,21.3704566 15.9780142,21.3547937 C15.9733578,21.3394633 15.9676703,21.3238003 15.9617168,21.3088025 C15.9553973,21.2938047 15.9483794,21.2788068 15.9407296,21.2644741 C15.9330798,21.2501413 15.9247315,21.2361411 15.915718,21.2224735 C15.9066712,21.2088058 15.8967265,21.1958033 15.8863493,21.1831333 C15.8760054,21.1704632 15.8650295,21.1581258 15.8533885,21.1464866 C15.8420468,21.1351468 15.8297073,21.123807 15.8170684,21.1134981 C15.8043631,21.1031559 15.791059,21.093512 15.7773891,21.0845 C15.7640518,21.075488 15.7497167,21.0668418 15.7353815,21.05916 C15.7210132,21.0514782 15.7060461,21.0444947 15.6910458,21.0385089 C15.6760455,21.0321905 15.6607125,21.0265039 15.645047,21.0218483 C15.6293482,21.0171926 15.613716,21.0131688 15.5977179,21.0098434 C15.5817197,21.0068505 15.5653557,21.0041901 15.5490583,21.0024941 C15.5163968,20.9991686 15.4833695,20.9991686 15.4507081,21.0024941 C15.4347099,21.0041568 15.4183792,21.0068172 15.4023811,21.0098434 C15.386383,21.0131688 15.3703848,21.0171594 15.3547193,21.0218483 C15.3390205,21.0265039 15.3236876,21.0321905 15.3087206,21.0385089 C15.2937202,21.0444947 15.2787199,21.0515114 15.2643848,21.05916 C15.2500164,21.0668418 15.2360139,21.075488 15.222344,21.0845 C15.2087073,21.093512 15.1953368,21.1031559 15.1829973,21.1134981 C15.1699925,21.1238402 15.1579856,21.1351468 15.1463113,21.1464866 C15.1346038,21.158159 15.1236279,21.1704965 15.1133173,21.1831333 C15.1029401,21.1958033 15.0933279,21.2088058 15.0839818,21.2224735 C15.0749351,21.2361411 15.06662,21.2501413 15.0589702,21.2644741 C15.0512871,21.2788068 15.0443025,21.2938047 15.0383157,21.3088025 C15.0319962,21.3238003 15.0263088,21.3394633 15.0216523,21.3547937 C15.0169959,21.3704566 15.0129715,21.3864521 15.0096454,21.4024475 C15.0063194,21.418443 15.0039912,21.434771 15.0023282,21.4507665 C15.0006652,21.4670945 15,21.4837551 15,21.5000831 C15,21.5164112 15.0006985,21.5327392 15.0023282,21.5490672 C15.0039912,21.5653952 15.0063194,21.5817233 15.0096454,21.5977187 C15.0130047,21.6137142 15.0169959,21.6297097 15.0216523,21.6450401 C15.0263088,21.660703 15.0319962,21.6760334 15.0383157,21.6910312 C15.0443025,21.7063616 15.0513204,21.7210269 15.0589702,21.7353596 C15.06662,21.7496924 15.0749351,21.7640251 15.0839818,21.7773602 C15.0933279,21.7910279 15.1029401,21.804363 15.1133173,21.817033 C15.1236612,21.829703 15.134637,21.8420405 15.1463113,21.8533471 C15.1579856,21.8650195 15.1699925,21.8760267 15.1829973,21.8863357 C15.1953368,21.8966779 15.2087073,21.9066543 15.222344,21.9156663 C15.2360139,21.9246783 15.2500164,21.9329919 15.2643848,21.9406737 C15.2787199,21.9483556 15.2937202,21.955339 15.3087206,21.9616574 C15.3236876,21.9676432 15.3390205,21.9733298 15.3547193,21.9779854 C15.3703848,21.9829736 15.3863497,21.9869974 15.4023811,21.9899904 C15.4183792,21.9933158 15.4347099,21.9956436 15.4507081,21.9973396 C15.4670388,21.9990024 15.4837021,22 15.4999996,22 C15.5163303,22 15.532661,21.9990024 15.549025,21.9973396 C15.5653225,21.9956769 15.5816532,21.9933491 15.5976846,21.9899904 C15.6136495,21.9869974 15.629315,21.9830069 15.6450138,21.9779854 C15.6606793,21.9733298 15.6760122,21.9676432 15.6910125,21.9616574 C15.7060128,21.955339 15.7209799,21.9483223 15.7353483,21.9406737 C15.7496834,21.9329919 15.7639853,21.9246783 15.7773558,21.9156663 C15.7910257,21.9066543 15.8043631,21.8966779 15.8170352,21.8863357 C15.8297073,21.8759935 15.8420468,21.8650195 15.8533552,21.8533471 C15.8650295,21.8420072 15.8760387,21.8296698 15.886316,21.817033 C15.8966932,21.804363 15.906638,21.7910279 15.9156847,21.7773602 C15.9246982,21.7640251 15.9330133,21.7496924 15.9406963,21.7353596 C15.9483462,21.7210269 15.9553308,21.7063616 15.9616835,21.6910312 C15.9676703,21.6760334 15.9733578,21.660703 15.977981,21.6450401 C15.98297,21.6297097 15.9870277,21.6137142 15.9899879,21.5977187 C15.9933471,21.5817233 15.9956421,21.5653952 15.9973384,21.5490672 C15.9990346,21.5327392 15.9999992,21.5164112 15.9999992,21.5000831 C16.0000324,21.4837551 15.9990679,21.4670945 15.9973716,21.4507665 Z" id="Path"></path>
        </g>
    </g>
</svg>