<svg width="30" height="30" viewBox="0 0 30 30" fill="none" xmlns="http://www.w3.org/2000/svg">
<path d="M28.8622 5.76166H10.7586C10.1873 5.76166 9.72412 6.22479 9.72412 6.79614C9.72412 7.36749 10.1873 7.83063 10.7586 7.83063H28.8621C29.4334 7.83063 29.8966 7.36749 29.8966 6.79614C29.8966 6.22479 29.4334 5.76166 28.8622 5.76166Z" fill="black"/>
<path d="M2.68968 9.38232C4.11798 9.38232 5.27585 8.22446 5.27585 6.79616C5.27585 5.36786 4.11798 4.20999 2.68968 4.20999C1.26138 4.20999 0.103516 5.36786 0.103516 6.79616C0.103516 8.22446 1.26138 9.38232 2.68968 9.38232Z" fill="black"/>
<path d="M28.8622 22.1755H10.7586C10.1873 22.1755 9.72412 22.6386 9.72412 23.21C9.72412 23.7813 10.1873 24.2444 10.7586 24.2444H28.8621C29.4334 24.2444 29.8966 23.7813 29.8966 23.21C29.8966 22.6386 29.4334 22.1755 28.8622 22.1755Z" fill="black"/>
<path d="M2.68968 25.7961C4.11798 25.7961 5.27585 24.6383 5.27585 23.21C5.27585 21.7817 4.11798 20.6238 2.68968 20.6238C1.26138 20.6238 0.103516 21.7817 0.103516 23.21C0.103516 24.6383 1.26138 25.7961 2.68968 25.7961Z" fill="black"/>
<path d="M28.8622 14.1755H10.7586C10.1873 14.1755 9.72412 14.6386 9.72412 15.21C9.72412 15.7813 10.1873 16.2444 10.7586 16.2444H28.8621C29.4334 16.2444 29.8966 15.7813 29.8966 15.21C29.8966 14.6386 29.4334 14.1755 28.8622 14.1755Z" fill="black"/>
<path d="M2.68968 17.7961C4.11798 17.7961 5.27585 16.6383 5.27585 15.21C5.27585 13.7817 4.11798 12.6238 2.68968 12.6238C1.26138 12.6238 0.103516 13.7817 0.103516 15.21C0.103516 16.6383 1.26138 17.7961 2.68968 17.7961Z" fill="black"/>
</svg>
