<svg width="30" height="30" viewBox="0 0 30 30" fill="none" xmlns="http://www.w3.org/2000/svg">
<path d="M12.4758 1.04591L8.69995 4.82114L15.0095 11.1341L21.3081 4.82864L17.5254 1.04591C16.8272 0.348409 15.9136 0 14.9999 0C14.0863 0 13.1733 0.348409 12.4758 1.04591Z" fill="#999999"/>
<path d="M8.69996 4.82114L1.0459 12.4759C0.349089 13.1727 0 14.0864 0 15C0 15.9136 0.348408 16.8273 1.0459 17.5241L4.83816 21.3164L15.0095 11.1341L8.69996 4.82114Z" fill="url(#paint0_linear)"/>
<path d="M27.5495 11.0707L21.3081 4.82864L15.0095 11.1341L21.2052 17.3346L27.5495 11.0707Z" fill="url(#paint1_linear)"/>
<path d="M28.9546 12.4759L27.5494 11.0707L21.2051 17.3352L25.1732 21.3061L28.9539 17.5255C29.6453 16.8341 29.9937 15.93 29.9998 15.0232C30.0059 14.1014 29.6575 13.1789 28.9546 12.4759Z" fill="url(#paint2_linear)"/>
<path d="M4.83813 21.3164L12.4758 28.9541C13.1733 29.6516 14.087 30 14.9999 30C15.9129 30 16.8272 29.6516 17.524 28.9541L25.1726 21.3055L15.0088 11.1341L4.83813 21.3164Z" fill="url(#paint3_linear)"/>
<defs>
<linearGradient id="paint0_linear" x1="3.76839" y1="9.99955" x2="19.8436" y2="26.342" gradientUnits="userSpaceOnUse">
<stop stop-color="#4C4C4C"/>
<stop offset="0.541" stop-color="#414141"/>
<stop offset="1" stop-color="#343434"/>
</linearGradient>
<linearGradient id="paint1_linear" x1="15.0095" y1="11.0816" x2="27.5495" y2="11.0816" gradientUnits="userSpaceOnUse">
<stop stop-color="#1D59B3"/>
<stop offset="1" stop-color="#195BBC"/>
</linearGradient>
<linearGradient id="paint2_linear" x1="21.2051" y1="16.1884" x2="29.9991" y2="16.1884" gradientUnits="userSpaceOnUse">
<stop stop-color="#42A3F2"/>
<stop offset="1" stop-color="#42A4EB"/>
</linearGradient>
<linearGradient id="paint3_linear" x1="4.83813" y1="20.5671" x2="25.1733" y2="20.5671" gradientUnits="userSpaceOnUse">
<stop stop-color="#3079D6"/>
<stop offset="1" stop-color="#297CD2"/>
</linearGradient>
</defs>
</svg>
