<svg width="10" height="11" viewBox="0 0 10 11" fill="none" xmlns="http://www.w3.org/2000/svg">
<path d="M5.91617 5.00827L9.80998 1.11435C10.0634 0.861071 10.0634 0.451547 9.80998 0.198263C9.5567 -0.0550201 9.14717 -0.0550201 8.89389 0.198263L4.99996 4.09218L1.10615 0.198263C0.852743 -0.0550201 0.443336 -0.0550201 0.190052 0.198263C-0.0633507 0.451547 -0.0633507 0.861071 0.190052 1.11435L4.08387 5.00827L0.190052 8.90219C-0.0633507 9.15548 -0.0633507 9.565 0.190052 9.81829C0.316279 9.94463 0.482248 10.0081 0.648099 10.0081C0.81395 10.0081 0.9798 9.94463 1.10615 9.81829L4.99996 5.92437L8.89389 9.81829C9.02024 9.94463 9.18609 10.0081 9.35194 10.0081C9.51779 10.0081 9.68364 9.94463 9.80998 9.81829C10.0634 9.565 10.0634 9.15548 9.80998 8.90219L5.91617 5.00827Z" fill="white"/>
</svg>
