<?xml version="1.0" encoding="UTF-8"?>
<svg width="12px" height="12px" viewBox="0 0 12 12" version="1.1" xmlns="http://www.w3.org/2000/svg" xmlns:xlink="http://www.w3.org/1999/xlink">
    <!-- Generator: Sketch 52.6 (67491) - http://www.bohemiancoding.com/sketch -->
    <title>info</title>
    <desc>Created with Sketch.</desc>
    <g id="Page-1" stroke="none" stroke-width="1" fill="none" fill-rule="evenodd">
        <g id="info" fill="#7A7A7A" fill-rule="nonzero">
            <path d="M6,0 C2.68382813,0 0,2.68352344 0,6 C0,9.31617188 2.68352344,12 6,12 C9.31617188,12 12,9.31647656 12,6 C12,2.68382813 9.31647656,0 6,0 Z M6.39991406,9.62838281 C6.39991406,9.84928125 6.22082813,10.0283906 5.99990625,10.0283906 C5.77898438,10.0283906 5.59989844,9.84930469 5.59989844,9.62838281 L5.59989844,6.25413281 C5.59989844,6.03323438 5.77898438,5.854125 5.99990625,5.854125 C6.22082813,5.854125 6.39991406,6.03321094 6.39991406,6.25413281 L6.39991406,9.62838281 Z M6,4.04036719 C5.55888281,4.04036719 5.20000781,3.68149219 5.20000781,3.240375 C5.20000781,2.79925781 5.55888281,2.44038281 6,2.44038281 C6.44111719,2.44038281 6.79999219,2.79925781 6.79999219,3.240375 C6.79999219,3.68149219 6.44111719,4.04036719 6,4.04036719 Z" id="Shape"></path>
        </g>
    </g>
</svg>