<svg width="30" height="30" viewBox="0 0 30 30" fill="none" xmlns="http://www.w3.org/2000/svg">
<path d="M15 0C9.48612 0 4.99998 4.48612 4.99998 10C4.99998 11.6553 5.41384 13.2965 6.20059 14.7522L14.4532 29.6777C14.563 29.8767 14.7724 30 15 30C15.2276 30 15.437 29.8767 15.5468 29.6777L23.8025 14.7473C24.5861 13.2965 25 11.6552 25 9.99996C25 4.48612 20.5139 0 15 0ZM15 15C12.2431 15 10 12.757 10 10C10 7.24308 12.2431 5.00004 15 5.00004C17.7569 5.00004 20 7.24308 20 10C20 12.757 17.7569 15 15 15Z" fill="white"/>
</svg>
