<svg width="30" height="30" viewBox="0 0 30 30" fill="none" xmlns="http://www.w3.org/2000/svg">
<path d="M23.4369 19.687H6.56233C2.94385 19.687 0 16.7431 0 13.1247C0 9.50617 2.94385 6.56233 6.56233 6.56233C6.89473 6.56233 7.22431 6.587 7.54927 6.63604C7.97887 2.90588 11.1562 0 14.9996 0C18.8431 0 22.0204 2.90588 22.45 6.63604C22.775 6.587 23.1045 6.56233 23.4369 6.56233C27.0554 6.56233 29.9993 9.50617 29.9993 13.1247C29.9993 16.7431 27.0554 19.687 23.4369 19.687Z" fill="white"/>
<path d="M12.6551 24.8432C12.4763 24.8432 12.2957 24.7922 12.1359 24.6857C11.7051 24.3985 11.5887 23.8165 11.8759 23.3857L12.8134 21.9795C13.1006 21.5486 13.6827 21.4323 14.1134 21.7195C14.5442 22.0066 14.6607 22.5887 14.3735 23.0194L13.436 24.4257C13.2553 24.6967 12.958 24.8432 12.6551 24.8432Z" fill="white"/>
<path d="M4.68648 24.8432C4.50777 24.8432 4.32714 24.7922 4.16735 24.6857C3.73652 24.3985 3.6201 23.8165 3.90732 23.3857L4.84479 21.9795C5.13196 21.5486 5.71413 21.4323 6.14484 21.7195C6.57567 22.0066 6.6921 22.5887 6.40488 23.0194L5.4674 24.4257C5.2867 24.6967 4.9894 24.8432 4.68648 24.8432Z" fill="white"/>
<path d="M21.5612 24.8432C21.3824 24.8432 21.2018 24.7922 21.042 24.6857C20.6112 24.3985 20.4947 23.8165 20.782 23.3857L21.7195 21.9795C22.0067 21.5486 22.5887 21.4323 23.0195 21.7195C23.4503 22.0066 23.5667 22.5887 23.2796 23.0194L22.3421 24.4257C22.1614 24.6967 21.8641 24.8432 21.5612 24.8432Z" fill="white"/>
<path d="M12.6551 29.9994C12.4763 29.9994 12.2957 29.9484 12.1359 29.8419C11.7051 29.5546 11.5887 28.9726 11.8759 28.5419L12.8134 27.1356C13.1006 26.7048 13.6827 26.5884 14.1134 26.8756C14.5442 27.1628 14.6607 27.7448 14.3735 28.1756L13.436 29.5819C13.2553 29.8529 12.958 29.9994 12.6551 29.9994Z" fill="white"/>
<path d="M16.8737 26.7181C16.695 26.7181 16.5144 26.6672 16.3546 26.5606C15.9238 26.2735 15.8073 25.6914 16.0945 25.2607L17.032 23.8544C17.3192 23.4236 17.9014 23.3073 18.3321 23.5944C18.7629 23.8816 18.8793 24.4636 18.5921 24.8944L17.6546 26.3006C17.4739 26.5717 17.1766 26.7181 16.8737 26.7181Z" fill="white"/>
<path d="M21.0924 29.9994C20.9137 29.9994 20.733 29.9484 20.5733 29.8419C20.1425 29.5546 20.026 28.9726 20.3132 28.5419L21.2507 27.1356C21.5378 26.7048 22.12 26.5884 22.5508 26.8756C22.9816 27.1628 23.098 27.7448 22.8108 28.1756L21.8733 29.5819C21.6926 29.8529 21.3953 29.9994 21.0924 29.9994Z" fill="white"/>
<path d="M8.43645 26.7181C8.25773 26.7181 8.07713 26.6672 7.91731 26.5606C7.48649 26.2735 7.37007 25.6914 7.65728 25.2607L8.59478 23.8544C8.88195 23.4236 9.46403 23.3073 9.89483 23.5944C10.3256 23.8816 10.4421 24.4636 10.1549 24.8944L9.21735 26.3006C9.03668 26.5717 8.73938 26.7181 8.43645 26.7181Z" fill="white"/>
<path d="M4.21779 29.9994C4.03908 29.9994 3.85844 29.9484 3.69866 29.8419C3.26783 29.5546 3.1514 28.9726 3.43862 28.5419L4.37611 27.1356C4.66327 26.7048 5.24544 26.5884 5.67615 26.8756C6.10698 27.1628 6.2234 27.7448 5.93618 28.1756L4.99871 29.5819C4.81801 29.8529 4.52071 29.9994 4.21779 29.9994Z" fill="white"/>
</svg>
