<svg width="30" height="30" viewBox="0 0 30 30" fill="none" xmlns="http://www.w3.org/2000/svg">
<path d="M19.6875 24.375C19.6875 25.0001 19.5625 25.6189 19.3198 26.195C19.077 26.7711 18.7215 27.2928 18.2742 27.7295C17.8268 28.1661 17.2967 28.5089 16.7149 28.7376C16.1331 28.9663 15.5114 29.0763 14.8865 29.0611C12.3464 29.0011 10.2986 26.8888 10.3126 24.3481C10.317 23.5297 10.5357 22.7268 10.9469 22.0192C11.3581 21.3116 11.9474 20.724 12.6563 20.315V3.28125C12.6563 2.65965 12.9033 2.06351 13.3428 1.62397C13.7823 1.18443 14.3785 0.9375 15.0001 0.9375V0.9375C15.6217 0.9375 16.2178 1.18443 16.6574 1.62397C17.0969 2.06351 17.3438 2.65965 17.3438 3.28125V20.315C18.0566 20.7263 18.6485 21.3181 19.06 22.0308C19.4714 22.7435 19.6878 23.552 19.6875 24.375V24.375Z" fill="#E0E0E2"/>
<path d="M15 26.7188C16.2944 26.7188 17.3438 25.6694 17.3438 24.375C17.3438 23.0806 16.2944 22.0312 15 22.0312C13.7056 22.0312 12.6562 23.0806 12.6562 24.375C12.6562 25.6694 13.7056 26.7188 15 26.7188Z" fill="#D80027"/>
<path d="M17.8125 20.0531V3.28125C17.8125 2.53533 17.5162 1.81996 16.9888 1.29251C16.4613 0.765066 15.7459 0.46875 15 0.46875C14.2541 0.46875 13.5387 0.765066 13.0113 1.29251C12.4838 1.81996 12.1875 2.53533 12.1875 3.28125V20.0531C11.4736 20.5203 10.8862 21.1566 10.4773 21.9055C10.0684 22.6543 9.85082 23.4925 9.84377 24.3457C9.82795 27.1383 12.0856 29.4639 14.8752 29.5301C14.9174 29.5307 14.9596 29.5312 15.0012 29.5312C16.3685 29.5309 17.6797 28.9876 18.6465 28.0206C19.6132 27.0537 20.1563 25.7423 20.1563 24.375C20.1546 23.5168 19.9395 22.6724 19.5304 21.918C19.1212 21.1636 18.5309 20.5227 17.8125 20.0531V20.0531ZM17.9473 27.3932C17.5458 27.788 17.0688 28.0978 16.5447 28.3039C16.0207 28.51 15.4604 28.6082 14.8975 28.5926C12.6153 28.5387 10.7684 26.6355 10.7813 24.351C10.7873 23.6147 10.985 22.8927 11.355 22.2561C11.725 21.6194 12.2545 21.0902 12.8912 20.7205C12.9624 20.6794 13.0215 20.6203 13.0626 20.5492C13.1036 20.478 13.1251 20.3972 13.125 20.315V3.28125C13.125 2.78397 13.3226 2.30706 13.6742 1.95542C14.0258 1.60379 14.5027 1.40625 15 1.40625C15.4973 1.40625 15.9742 1.60379 16.3258 1.95542C16.6775 2.30706 16.875 2.78397 16.875 3.28125V4.6875H16.4063C16.282 4.6875 16.1627 4.73689 16.0748 4.82479C15.9869 4.9127 15.9375 5.03193 15.9375 5.15625C15.9375 5.28057 15.9869 5.3998 16.0748 5.48771C16.1627 5.57561 16.282 5.625 16.4063 5.625H16.875V6.5625H16.4063C16.282 6.5625 16.1627 6.61189 16.0748 6.69979C15.9869 6.7877 15.9375 6.90693 15.9375 7.03125C15.9375 7.15557 15.9869 7.2748 16.0748 7.36271C16.1627 7.45061 16.282 7.5 16.4063 7.5H16.875V8.4375H16.4063C16.282 8.4375 16.1627 8.48689 16.0748 8.57479C15.9869 8.6627 15.9375 8.78193 15.9375 8.90625C15.9375 9.03057 15.9869 9.1498 16.0748 9.23771C16.1627 9.32561 16.282 9.375 16.4063 9.375H16.875V10.3125H16.4063C16.282 10.3125 16.1627 10.3619 16.0748 10.4498C15.9869 10.5377 15.9375 10.6569 15.9375 10.7812C15.9375 10.9056 15.9869 11.0248 16.0748 11.1127C16.1627 11.2006 16.282 11.25 16.4063 11.25H16.875V12.1875H16.4063C16.282 12.1875 16.1627 12.2369 16.0748 12.3248C15.9869 12.4127 15.9375 12.5319 15.9375 12.6562C15.9375 12.7806 15.9869 12.8998 16.0748 12.9877C16.1627 13.0756 16.282 13.125 16.4063 13.125H16.875V14.0625H16.4063C16.282 14.0625 16.1627 14.1119 16.0748 14.1998C15.9869 14.2877 15.9375 14.4069 15.9375 14.5312C15.9375 14.6556 15.9869 14.7748 16.0748 14.8627C16.1627 14.9506 16.282 15 16.4063 15H16.875V15.9375H16.4063C16.282 15.9375 16.1627 15.9869 16.0748 16.0748C15.9869 16.1627 15.9375 16.2819 15.9375 16.4062C15.9375 16.5306 15.9869 16.6498 16.0748 16.7377C16.1627 16.8256 16.282 16.875 16.4063 16.875H16.875V17.8125H16.4063C16.282 17.8125 16.1627 17.8619 16.0748 17.9498C15.9869 18.0377 15.9375 18.1569 15.9375 18.2812C15.9375 18.4056 15.9869 18.5248 16.0748 18.6127C16.1627 18.7006 16.282 18.75 16.4063 18.75H16.875V20.315C16.8749 20.3972 16.8964 20.478 16.9375 20.5492C16.9785 20.6203 17.0376 20.6794 17.1088 20.7205C17.7492 21.0921 18.2811 21.6251 18.6513 22.2663C19.0215 22.9075 19.2172 23.6346 19.2188 24.375C19.2205 24.9377 19.1089 25.495 18.8904 26.0136C18.6719 26.5321 18.3512 27.0014 17.9473 27.3932V27.3932Z" fill="white"/>
<path d="M15.4687 21.6023V3.28125C15.4687 3.15693 15.4194 3.0377 15.3315 2.94979C15.2435 2.86189 15.1243 2.8125 15 2.8125C14.8757 2.8125 14.7565 2.86189 14.6685 2.94979C14.5806 3.0377 14.5313 3.15693 14.5313 3.28125V21.6023C13.8359 21.7199 13.2101 22.0943 12.7778 22.6515C12.3456 23.2087 12.1384 23.908 12.1974 24.6107C12.2563 25.3134 12.5771 25.9684 13.0962 26.4457C13.6153 26.9231 14.2948 27.188 15 27.188C15.7052 27.188 16.3847 26.9231 16.9038 26.4457C17.4229 25.9684 17.7437 25.3134 17.8026 24.6107C17.8616 23.908 17.6544 23.2087 17.2222 22.6515C16.7899 22.0943 16.1641 21.7199 15.4687 21.6023V21.6023ZM15 26.25C14.6292 26.25 14.2666 26.14 13.9583 25.934C13.65 25.728 13.4096 25.4351 13.2677 25.0925C13.1258 24.7499 13.0887 24.3729 13.161 24.0092C13.2334 23.6455 13.412 23.3114 13.6742 23.0492C13.9364 22.787 14.2705 22.6084 14.6342 22.536C14.9979 22.4637 15.3749 22.5008 15.7175 22.6427C16.0601 22.7846 16.353 23.025 16.559 23.3333C16.765 23.6416 16.875 24.0042 16.875 24.375C16.8743 24.8721 16.6766 25.3486 16.3251 25.7001C15.9736 26.0516 15.4971 26.2493 15 26.25Z" fill="white"/>
</svg>
