<svg width="30" height="30" viewBox="0 0 30 30" fill="none" xmlns="http://www.w3.org/2000/svg">
<g clip-path="url(#clip0)">
<path d="M23.125 4.30853H6.87498C3.07975 4.31269 0.00416016 7.38828 0 11.1835V12.4335C0 12.7787 0.279844 13.0585 0.62502 13.0585H29.375C29.7202 13.0585 30.0001 12.7787 30.0001 12.4335V11.1835C29.9958 7.38828 26.9203 4.31269 23.125 4.30853Z" fill="#455A64"/>
<path d="M25.5587 8.40356L22.9125 3.11108C21.8319 0.949851 19.2041 0.0738159 17.0428 1.15428C17.0036 1.17386 16.9648 1.19407 16.9262 1.21481L4.07873 8.13233C3.77498 8.29628 3.66166 8.67544 3.82561 8.97919C3.93459 9.18116 4.14553 9.30708 4.37498 9.30731H25C25.3452 9.30731 25.625 9.02747 25.6249 8.68229C25.6249 8.58509 25.6023 8.48923 25.5587 8.40233V8.40356V8.40356Z" fill="#4CAF50"/>
<path d="M4.37502 8.05853H25.625C28.0413 8.05853 30.0001 10.0173 30.0001 12.4336V24.9335C30.0001 27.3498 28.0413 29.3086 25.625 29.3086H4.37502C1.95873 29.3086 0 27.3498 0 24.9335V12.4336C0 10.0173 1.95873 8.05853 4.37502 8.05853Z" fill="#607D8B"/>
<path d="M29.3749 14.3085H24.3749C21.9587 14.3098 20.001 16.2695 20.0022 18.6858C20.0035 21.1003 21.9605 23.0573 24.3749 23.0586H29.3749C29.7201 23.0586 29.9999 22.7787 29.9999 22.4336V14.9336C29.9999 14.5883 29.7201 14.3085 29.3749 14.3085Z" fill="#455A64"/>
<path d="M24.375 20.5585C25.4105 20.5585 26.25 19.719 26.25 18.6835C26.25 17.6479 25.4105 16.8085 24.375 16.8085C23.3395 16.8085 22.5 17.6479 22.5 18.6835C22.5 19.719 23.3395 20.5585 24.375 20.5585Z" fill="#90A4AE"/>
</g>
<defs>
<clipPath id="clip0">
<rect width="30" height="30" fill="white"/>
</clipPath>
</defs>
</svg>
