<?xml version="1.0" encoding="UTF-8"?>
<svg width="20px" height="17px" viewBox="0 0 20 17" version="1.1" xmlns="http://www.w3.org/2000/svg" xmlns:xlink="http://www.w3.org/1999/xlink">
    <!-- Generator: Sketch 52.6 (67491) - http://www.bohemiancoding.com/sketch -->
    <title>wallet</title>
    <desc>Created with Sketch.</desc>
    <g id="Page-1" stroke="none" stroke-width="1" fill="none" fill-rule="evenodd">
        <g id="wallet" fill="#000000" fill-rule="nonzero">
            <path d="M19.1665258,8.03581208 L18.3332295,8.03581208 L18.3332295,4.36884212 C18.3332295,3.694809 17.7726549,3.14663482 17.0833741,3.14663482 L14.0455189,3.14663482 L12.9103063,1.4913195 C12.608924,0.902933153 11.8785214,0.652085611 11.2757568,0.92660787 L10.3082359,1.33464858 L10.0091678,0.707442692 C9.71793254,0.0966001423 8.97239849,-0.168695952 8.35913092,0.111745009 L1.13859491,3.1576018 C0.502185144,3.21365519 0,3.73223596 0,4.36884212 L0,15.7777927 C0,16.4518258 0.560752678,17 1.2500334,17 L17.0833741,17 C17.7726549,17 18.3332295,16.4518258 18.3332295,15.7777927 L18.3332295,12.1103005 L19.1665258,12.1103005 C19.6261649,12.1103005 20,11.7445609 20,11.2954376 L20,8.85084901 C20,8.40155163 19.6261649,8.03581208 19.1665258,8.03581208 Z M11.6166588,1.66992438 C11.8258285,1.57522551 12.0736277,1.66365754 12.1706468,1.86698158 C12.1795476,1.88595616 12.1902287,1.90440849 12.2021558,1.92146824 L13.0416826,3.1454163 L11.171439,3.1454163 L10.660353,2.07343902 L11.6166588,1.66992438 Z M8.70003294,0.855061516 C8.75699829,0.829297809 8.8168119,0.816938247 8.87573545,0.816938247 C9.03292422,0.816938247 9.18334833,0.903977648 9.25402096,1.05211868 L10.2521607,3.1454163 L3.26874291,3.14611262 L8.70003294,0.855061516 Z M17.4999332,15.7777927 C17.4999332,16.0025284 17.3130157,16.1851371 17.0833741,16.1851371 L1.2500334,16.1851371 C1.02021381,16.1851371 0.833296236,16.0025284 0.833296236,15.7777927 L0.833296236,4.36884212 C0.833296236,4.14410638 1.02021381,3.96149773 1.2500334,3.96149773 L17.0833741,3.96149773 C17.3130157,3.96149773 17.4999332,4.14410638 17.4999332,4.36884212 L17.4999332,8.03581208 L15.0000445,8.03581208 C14.5404054,8.03581208 14.1667483,8.40155163 14.1667483,8.85084901 L14.1667483,11.2954376 C14.1667483,11.7445609 14.5404054,12.1103005 15.0000445,12.1103005 L17.4999332,12.1103005 L17.4999332,15.7777927 Z M19.1665258,11.2954376 L15.0000445,11.2954376 L15.0000445,10.4805748 L15.8333408,10.4805748 C16.0633384,10.4805748 16.2498999,10.2983143 16.2498999,10.0730563 C16.2498999,9.84797238 16.0633384,9.66571191 15.8333408,9.66571191 L15.0000445,9.66571191 L15.0000445,8.85084901 L19.1665258,8.85084901 L19.1665258,11.2954376 Z" id="Shape"></path>
        </g>
    </g>
</svg>