<svg height="438pt" viewBox="0 -28 438.86161 438" width="438pt" xmlns="http://www.w3.org/2000/svg"><path d="m420.574219 180.75h-18.285157v-82.285156c0-15.125-12.300781-27.425782-27.425781-27.425782h-66.660156l-24.910156-37.144531c-6.613281-13.203125-22.640625-18.832031-35.867188-12.671875l-21.230469 9.15625-6.5625-14.074218c-6.390624-13.707032-22.75-19.660157-36.207031-13.367188l-158.441406 68.347656c-13.964844 1.257813-24.984375 12.894532-24.984375 27.179688v256.011718c0 15.125 12.304688 27.425782 27.429688 27.425782h347.433593c15.125 0 27.425781-12.300782 27.425781-27.425782v-82.296874h18.285157c10.085937 0 18.289062-8.207032 18.289062-18.285157v-54.855469c0-10.082031-8.203125-18.289062-18.289062-18.289062zm-165.667969-142.847656c4.589844-2.125 10.027344-.140625 12.15625 4.421875.195312.425781.429688.839843.691406 1.222656l18.421875 27.464844h-41.039062l-11.214844-24.054688zm-64-18.285156c1.25-.578126 2.5625-.855469 3.855469-.855469 3.449219 0 6.75 1.953125 8.300781 5.277343l21.902344 46.972657-153.238282.015625zm193.097656 334.859374c0 5.042969-4.101562 9.140626-9.140625 9.140626h-347.433593c-5.042969 0-9.144532-4.097657-9.144532-9.140626v-256.011718c0-5.042969 4.101563-9.140625 9.144532-9.140625h347.433593c5.039063 0 9.140625 4.097656 9.140625 9.140625v82.285156h-54.855468c-10.085938 0-18.285157 8.207031-18.285157 18.289062v54.855469c0 10.078125 8.199219 18.285157 18.285157 18.285157h54.855468zm36.570313-100.582031h-91.425781v-18.285156h18.285156c5.046875 0 9.140625-4.089844 9.140625-9.144531 0-5.050782-4.09375-9.140625-9.140625-9.140625h-18.285156v-18.285157h91.425781zm0 0"/></svg>